static_grf.mot
version=1
nRows=30
nColumns 19
inDegrees=yes
endheader
time	1_ground_force_vx	1_ground_force_vy	1_ground_force_vz	1_ground_force_px	1_ground_force_py	1_ground_force_pz	1_ground_torque_x	1_ground_torque_y	1_ground_torque_z	2_ground_force_vx	2_ground_force_vy	2_ground_force_vz	2_ground_force_px	2_ground_force_py	2_ground_force_pz	2_ground_torque_x	2_ground_torque_y	2_ground_torque_z
            1.336500	           -1.494446	          393.759803	          -54.299510	           -0.294763	            0.006083	           -0.375382	           -0.011629	            3.064128	           -0.422543	           -3.747692	          512.649876	           56.877392	           -0.283278	            0.005506	           -0.710258	            0.021624	           -2.957950	           -0.328178
            1.337000	           -1.632464	          393.940798	          -54.481820	           -0.294580	            0.006082	           -0.375063	           -0.012405	            2.993568	           -0.414009	           -3.749645	          513.201902	           56.973219	           -0.283228	            0.005507	           -0.710610	            0.021425	           -2.932314	           -0.325532
            1.337500	           -1.495243	          393.761180	          -54.620498	           -0.294582	            0.006083	           -0.375369	           -0.011461	            3.018204	           -0.418670	           -3.606581	          512.467019	           56.642034	           -0.283309	            0.005506	           -0.710435	            0.020470	           -2.908648	           -0.321487
            1.338000	           -1.495081	          394.121318	          -54.527240	           -0.294471	            0.006082	           -0.375106	           -0.011546	            3.043713	           -0.421102	           -3.842804	          513.018489	           56.691033	           -0.283144	            0.005508	           -0.710712	            0.021809	           -2.911459	           -0.321730
            1.338500	           -1.495225	          393.040313	          -54.669449	           -0.294856	            0.006084	           -0.375499	           -0.011762	            3.091800	           -0.430050	           -3.701569	          512.834627	           56.737244	           -0.283163	            0.005507	           -0.710450	            0.020956	           -2.903336	           -0.321209
            1.339000	           -1.815623	          393.399800	          -54.437824	           -0.294634	            0.006083	           -0.375274	           -0.013842	            2.999133	           -0.415014	           -3.324796	          512.283664	           56.688185	           -0.283277	            0.005506	           -0.710394	            0.019290	           -2.972173	           -0.328894
            1.339500	           -1.724734	          393.401194	          -54.759047	           -0.294893	            0.006084	           -0.375498	           -0.013305	            3.034838	           -0.422431	           -3.654636	          512.834127	           56.924937	           -0.283131	            0.005507	           -0.710524	            0.020451	           -2.869795	           -0.318549
            1.340000	           -1.677621	          392.678174	          -54.303693	           -0.294914	            0.006085	           -0.375717	           -0.012951	            3.031445	           -0.419220	           -3.750974	          513.570184	           56.974533	           -0.283267	            0.005507	           -0.710626	            0.021364	           -2.925034	           -0.324498
            1.340500	           -1.449155	          393.039929	          -54.577851	           -0.294897	            0.006084	           -0.375536	           -0.011442	            3.103171	           -0.430909	           -3.747028	          512.465674	           56.876734	           -0.283371	            0.005506	           -0.710360	            0.021597	           -2.953787	           -0.327830
            1.341000	           -1.724003	          393.760349	          -54.436505	           -0.294904	            0.006083	           -0.375352	           -0.013124	            2.997466	           -0.414393	           -3.748418	          512.834458	           56.737264	           -0.283204	            0.005507	           -0.710632	            0.021060	           -2.881288	           -0.318770
            1.341500	           -1.632284	          393.580070	          -54.437506	           -0.294490	            0.006083	           -0.375359	           -0.012457	            3.003722	           -0.415456	           -3.465222	          512.282153	           56.969814	           -0.283274	            0.005506	           -0.710319	            0.020083	           -2.968947	           -0.330170
            1.342000	           -1.678567	          394.121479	          -54.572645	           -0.294547	            0.006083	           -0.375257	           -0.012859	            3.019245	           -0.418064	           -3.793857	          512.465338	           56.923682	           -0.283278	            0.005507	           -0.710544	            0.021247	           -2.870042	           -0.318799
            1.342500	           -1.311497	          393.580329	          -54.484162	           -0.294577	            0.006083	           -0.375358	           -0.010195	            3.059378	           -0.423516	           -3.653307	          512.465845	           56.923623	           -0.283161	            0.005507	           -0.710582	            0.020673	           -2.899888	           -0.322113
            1.343000	           -1.632398	          393.580267	          -54.483366	           -0.294792	            0.006083	           -0.375221	           -0.012810	            3.088493	           -0.427540	           -3.889468	          513.016813	           57.113406	           -0.283323	            0.005507	           -0.710602	            0.022051	           -2.908526	           -0.323802
            1.343500	           -1.677980	          393.399630	          -54.392313	           -0.295001	            0.006084	           -0.375505	           -0.012819	            3.005349	           -0.415526	           -3.510161	          511.730292	           56.780150	           -0.283264	            0.005506	           -0.710259	            0.020126	           -2.934061	           -0.325555
            1.344000	           -1.724263	          393.940977	          -54.527444	           -0.294446	            0.006083	           -0.375261	           -0.013113	            2.995956	           -0.414686	           -3.795933	          513.018490	           56.737941	           -0.283413	            0.005507	           -0.710603	            0.021081	           -2.849144	           -0.315105
            1.344500	           -1.403165	          392.859445	          -54.532879	           -0.294771	            0.006083	           -0.375299	           -0.011135	            3.117617	           -0.432757	           -3.655260	          513.017994	           57.019450	           -0.283190	            0.005507	           -0.710495	            0.020302	           -2.849403	           -0.316697
            1.345000	           -1.540062	          393.759401	          -54.207685	           -0.294967	            0.006083	           -0.375229	           -0.011914	            3.046097	           -0.419347	           -3.840768	          512.465671	           56.782918	           -0.283230	            0.005507	           -0.710506	            0.021959	           -2.929991	           -0.324653
            1.345500	           -1.449157	          394.301365	          -54.480729	           -0.294583	            0.006082	           -0.375045	           -0.011186	            3.043522	           -0.420524	           -3.935756	          512.833279	           56.878128	           -0.283233	            0.005507	           -0.710484	            0.022363	           -2.913900	           -0.323179
            1.346000	           -1.907438	          392.859348	          -54.531627	           -0.294837	            0.006084	           -0.375642	           -0.014363	            2.958199	           -0.410619	           -3.560231	          512.650051	           57.018096	           -0.283204	            0.005507	           -0.710443	            0.020529	           -2.956097	           -0.328784
            1.346500	           -1.494560	          393.760000	          -54.345362	           -0.294823	            0.006082	           -0.375148	           -0.011480	            3.024434	           -0.417422	           -3.791281	          511.729444	           56.733342	           -0.283372	            0.005506	           -0.710476	            0.021860	           -2.950567	           -0.327117
            1.347000	           -1.861271	          393.579633	          -54.345225	           -0.294702	            0.006083	           -0.375306	           -0.014279	            3.019456	           -0.416925	           -3.653972	          512.650047	           56.924280	           -0.283426	            0.005506	           -0.710406	            0.021040	           -2.951960	           -0.327783
            1.347500	           -1.265297	          394.120379	          -54.298533	           -0.294925	            0.006083	           -0.375409	           -0.009806	            3.054563	           -0.420832	           -3.467278	          512.835138	           56.831001	           -0.283080	            0.005507	           -0.710415	            0.019890	           -2.941816	           -0.326004
            1.348000	           -1.540011	          392.858239	          -54.257402	           -0.294605	            0.006084	           -0.375558	           -0.011653	            2.972733	           -0.410562	           -3.843989	          513.385598	           57.020844	           -0.283097	            0.005508	           -0.710544	            0.022044	           -2.944156	           -0.327002
            1.348500	           -1.540239	          392.858632	          -54.349114	           -0.295008	            0.006085	           -0.375663	           -0.011946	            3.047010	           -0.421532	           -3.651978	          512.097564	           56.922308	           -0.283557	            0.005505	           -0.710346	            0.020967	           -2.940144	           -0.326812
            1.349000	           -1.494219	          393.759410	          -54.207799	           -0.294736	            0.006083	           -0.375371	           -0.011425	            3.010763	           -0.414484	           -3.420407	          512.835140	           56.877909	           -0.282994	            0.005508	           -0.710635	            0.020024	           -3.002247	           -0.332975
            1.349500	           -1.677818	          393.759768	          -54.299055	           -0.294800	            0.006083	           -0.375337	           -0.012853	            3.016418	           -0.415961	           -3.700863	          512.650213	           56.830443	           -0.283471	            0.005505	           -0.710332	            0.021047	           -2.915403	           -0.323190
            1.350000	           -1.723988	          394.300919	          -54.388335	           -0.294718	            0.006083	           -0.375373	           -0.013209	            3.021162	           -0.416727	           -3.840104	          512.281469	           56.782261	           -0.283430	            0.005506	           -0.710498	            0.022046	           -2.940945	           -0.325980
            1.350500	           -1.541005	          393.941209	          -54.573759	           -0.294791	            0.006083	           -0.375309	           -0.011893	            3.040213	           -0.421169	           -3.795166	          512.833452	           56.971924	           -0.283346	            0.005507	           -0.710668	            0.021427	           -2.895339	           -0.321650
            1.351000	           -1.495309	          394.121711	          -54.618952	           -0.294739	            0.006084	           -0.375545	           -0.011729	            3.091563	           -0.428441	           -3.417811	          512.099079	           56.734496	           -0.283486	            0.005505	           -0.710349	            0.019599	           -2.936622	           -0.325343
